<svg width="20" height="20" viewBox="0 0 20 20" fill="none" xmlns="http://www.w3.org/2000/svg">
<path fill-rule="evenodd" clip-rule="evenodd" d="M12.0832 2.29102C12.0832 1.94584 12.363 1.66602 12.7082 1.66602H17.7082C18.0533 1.66602 18.3332 1.94584 18.3332 2.29102V7.29102C18.3332 7.63619 18.0533 7.91602 17.7082 7.91602C17.363 7.91602 17.0832 7.63619 17.0832 7.29102V3.7999L11.4834 9.39962C11.2394 9.6437 10.8436 9.6437 10.5996 9.39962C10.3555 9.15555 10.3555 8.75982 10.5996 8.51574L16.1993 2.91602H12.7082C12.363 2.91602 12.0832 2.63619 12.0832 2.29102Z" fill="#FF26B7"/>
<path d="M9.37484 2.29102C4.77246 2.29102 1.0415 6.02198 1.0415 10.6243C1.0415 15.2267 4.77246 18.9577 9.37484 18.9577C13.9772 18.9577 17.7082 15.2267 17.7082 10.6243C17.7082 10.1253 17.6643 9.63659 17.5802 9.16172C16.6044 9.09596 15.8332 8.28355 15.8332 7.29102V6.81767L12.3673 10.2835C11.6351 11.0157 10.4479 11.0157 9.71568 10.2835C8.98344 9.55127 8.98345 8.36409 9.71568 7.63186L13.1815 4.16602H12.7082C11.7156 4.16602 10.9032 3.39482 10.8375 2.41895C10.3626 2.33488 9.87384 2.29102 9.37484 2.29102Z" fill="#FF26B7"/>
</svg>
