<svg width="20" height="20" viewBox="0 0 20 20" fill="none" xmlns="http://www.w3.org/2000/svg">
<path fill-rule="evenodd" clip-rule="evenodd" d="M9.99984 18.3327C14.6022 18.3327 18.3332 14.6017 18.3332 9.99935C18.3332 5.39698 14.6022 1.66602 9.99984 1.66602C5.39746 1.66602 1.6665 5.39698 1.6665 9.99935C1.6665 14.6017 5.39746 18.3327 9.99984 18.3327ZM10.6248 6.66602C10.6248 6.32084 10.345 6.04102 9.99984 6.04102C9.65466 6.04102 9.37484 6.32084 9.37484 6.66602V9.99935C9.37484 10.1651 9.44069 10.3241 9.5579 10.4413L11.6412 12.5246C11.8853 12.7687 12.281 12.7687 12.5251 12.5246C12.7692 12.2805 12.7692 11.8848 12.5251 11.6407L10.6248 9.74047V6.66602Z" fill="#E8A80A"/>
</svg>
