<svg width="24" height="25" viewBox="0 0 24 25" fill="none" xmlns="http://www.w3.org/2000/svg">
<path fill-rule="evenodd" clip-rule="evenodd" d="M12.052 1.75H11.948C11.0495 1.74997 10.3003 1.74995 9.70552 1.82991C9.07773 1.91432 8.51093 2.09999 8.05546 2.55546C7.59999 3.01093 7.41432 3.57773 7.32991 4.20552C7.27259 4.63189 7.25637 5.65147 7.25179 6.52566C5.22954 6.59171 4.01536 6.82778 3.17157 7.67157C2 8.84315 2 10.7288 2 14.5C2 18.2712 2 20.1569 3.17157 21.3284C4.34314 22.5 6.22876 22.5 9.99998 22.5H14C17.7712 22.5 19.6569 22.5 20.8284 21.3284C22 20.1569 22 18.2712 22 14.5C22 10.7288 22 8.84315 20.8284 7.67157C19.9846 6.82778 18.7705 6.59171 16.7482 6.52566C16.7436 5.65147 16.7274 4.63189 16.6701 4.20552C16.5857 3.57773 16.4 3.01093 15.9445 2.55546C15.4891 2.09999 14.9223 1.91432 14.2945 1.82991C13.6997 1.74995 12.9505 1.74997 12.052 1.75ZM15.2479 6.50188C15.2434 5.65523 15.229 4.74407 15.1835 4.4054C15.1214 3.94393 15.0142 3.74644 14.8839 3.61612C14.7536 3.4858 14.5561 3.37858 14.0946 3.31654C13.6116 3.2516 12.964 3.25 12 3.25C11.036 3.25 10.3884 3.2516 9.90539 3.31654C9.44393 3.37858 9.24644 3.4858 9.11612 3.61612C8.9858 3.74644 8.87858 3.94393 8.81654 4.4054C8.771 4.74407 8.75661 5.65523 8.75208 6.50188C9.1435 6.5 9.55885 6.5 10 6.5H14C14.4412 6.5 14.8565 6.5 15.2479 6.50188ZM12 9.75C12.4142 9.75 12.75 10.0858 12.75 10.5V10.5102C13.8388 10.7845 14.75 11.643 14.75 12.8333C14.75 13.2475 14.4142 13.5833 14 13.5833C13.5858 13.5833 13.25 13.2475 13.25 12.8333C13.25 12.4493 12.8242 11.9167 12 11.9167C11.1758 11.9167 10.75 12.4493 10.75 12.8333C10.75 13.2174 11.1758 13.75 12 13.75C13.3849 13.75 14.75 14.7098 14.75 16.1667C14.75 17.357 13.8388 18.2155 12.75 18.4898V18.5C12.75 18.9142 12.4142 19.25 12 19.25C11.5858 19.25 11.25 18.9142 11.25 18.5V18.4898C10.1612 18.2155 9.25 17.357 9.25 16.1667C9.25 15.7525 9.58579 15.4167 10 15.4167C10.4142 15.4167 10.75 15.7525 10.75 16.1667C10.75 16.5507 11.1758 17.0833 12 17.0833C12.8242 17.0833 13.25 16.5507 13.25 16.1667C13.25 15.7826 12.8242 15.25 12 15.25C10.6151 15.25 9.25 14.2903 9.25 12.8333C9.25 11.643 10.1612 10.7845 11.25 10.5102V10.5C11.25 10.0858 11.5858 9.75 12 9.75Z" fill="#CDCFD4"/>
</svg>
