<svg width="25" height="25" viewBox="0 0 25 25" fill="none" xmlns="http://www.w3.org/2000/svg">
<path d="M18.0777 4.93152L16.0777 3.88197C14.3221 2.96066 13.4443 2.5 12.5 2.5C11.5557 2.5 10.6779 2.96066 8.92229 3.88197L6.92229 4.93152C5.14855 5.86234 4.1059 6.4095 3.45969 7.14132L12.5 11.6615L21.5403 7.14132C20.8941 6.4095 19.8515 5.86234 18.0777 4.93152Z" fill="#B91C1C"/>
<path d="M22.2484 8.46435L13.25 12.9635V22.404C13.9679 22.2252 14.7848 21.7965 16.0777 21.118L18.0777 20.0685C20.2294 18.9393 21.3052 18.3748 21.9026 17.3603C22.5 16.3458 22.5 15.0833 22.5 12.5585V12.4415C22.5 10.5489 22.5 9.36558 22.2484 8.46435Z" fill="#B91C1C"/>
<path d="M11.75 22.404V12.9635L2.75164 8.46434C2.5 9.36557 2.5 10.5489 2.5 12.4415V12.5585C2.5 15.0833 2.5 16.3458 3.0974 17.3603C3.69479 18.3748 4.77063 18.9393 6.92229 20.0685L8.92229 21.118C10.2152 21.7965 11.0321 22.2252 11.75 22.404Z" fill="#B91C1C"/>
</svg>
