<svg width="75" height="25" viewBox="0 0 75 25" fill="none" xmlns="http://www.w3.org/2000/svg">
<rect x="0.25" y="0.25" width="74.5" height="24.5" rx="12.25" fill="#EEF6FF"/>
<rect x="0.25" y="0.25" width="74.5" height="24.5" rx="12.25" stroke="#58A6FF" stroke-width="0.5"/>
<g clip-path="url(#clip0_3113_27270)">
<path d="M13.9999 7.25C14.8099 7.25 15.5824 7.41125 16.2874 7.703L16.2934 7.70525L16.2964 7.70675C17.7514 8.312 18.9214 9.47675 19.5289 10.9243L19.5409 10.9467C19.5449 10.9577 19.5479 10.9685 19.5499 10.979C20.141 12.4283 20.1423 14.0512 19.5536 15.5015C19.5506 15.5165 19.5464 15.531 19.5409 15.545C19.5344 15.5595 19.5269 15.5732 19.5184 15.5863C19.4531 15.742 19.3813 15.8948 19.3031 16.0445L19.2611 16.1082C19.2019 16.1793 19.1184 16.2259 19.0268 16.2391C18.9352 16.2524 18.842 16.2313 18.765 16.1799C18.6881 16.1285 18.6328 16.0505 18.6099 15.9609C18.587 15.8712 18.598 15.7763 18.6409 15.6943L18.6881 15.5968L17.6681 15.173C17.6201 15.1561 17.5759 15.1296 17.5384 15.0951C17.5009 15.0607 17.4709 15.0189 17.45 14.9724C17.4292 14.9259 17.4181 14.8756 17.4174 14.8247C17.4166 14.7737 17.4262 14.7232 17.4457 14.6761C17.4651 14.629 17.494 14.5863 17.5304 14.5508C17.5669 14.5152 17.6102 14.4874 17.6578 14.4691C17.7053 14.4508 17.7561 14.4424 17.807 14.4444C17.8579 14.4464 17.9079 14.4588 17.9539 14.4808L18.9814 14.9052C19.34 13.8293 19.3395 12.6659 18.9799 11.5903L17.9524 12.0148C17.9066 12.0354 17.857 12.0467 17.8068 12.0478C17.7565 12.049 17.7065 12.04 17.6598 12.0214C17.6131 12.0029 17.5706 11.9751 17.5348 11.9398C17.499 11.9045 17.4707 11.8623 17.4515 11.8159C17.4324 11.7694 17.4227 11.7195 17.4232 11.6693C17.4237 11.619 17.4343 11.5693 17.4544 11.5232C17.4745 11.4771 17.5036 11.4355 17.54 11.4009C17.5765 11.3663 17.6196 11.3394 17.6666 11.3217L18.6866 10.898C18.1793 9.88614 17.3585 9.06535 16.3466 8.558L15.9229 9.5855C15.8838 9.67571 15.8108 9.74693 15.7196 9.78384C15.6285 9.82074 15.5265 9.82037 15.4356 9.7828C15.3447 9.74523 15.2722 9.67347 15.2338 9.58298C15.1953 9.49249 15.1939 9.39051 15.2299 9.299L15.6536 8.2715C14.5776 7.91348 13.4146 7.91348 12.3386 8.2715L12.7646 9.299C12.7835 9.3445 12.7931 9.39327 12.7931 9.4425C12.7931 9.49174 12.7833 9.54049 12.7644 9.58597C12.7456 9.63145 12.7179 9.67276 12.6831 9.70755C12.6482 9.74235 12.6069 9.76994 12.5614 9.78875C12.5159 9.80756 12.4671 9.81723 12.4179 9.81719C12.3686 9.81716 12.3199 9.80743 12.2744 9.78856C12.2289 9.76968 12.1876 9.74204 12.1528 9.7072C12.118 9.67236 12.0905 9.631 12.0716 9.5855L11.6456 8.558C10.6317 9.06862 9.80876 9.89158 9.29814 10.9055L10.3256 11.333C10.413 11.374 10.4811 11.447 10.516 11.5369C10.5508 11.6269 10.5497 11.7268 10.5128 11.8159C10.4759 11.905 10.4061 11.9765 10.3179 12.0155C10.2297 12.0545 10.1299 12.058 10.0391 12.0252L9.01164 11.5985C8.77453 12.3132 8.69396 13.0706 8.77539 13.8193L8.07714 14.249C7.93305 13.3892 7.97808 12.5084 8.20911 11.6678C8.44015 10.8272 8.85162 10.0471 9.41489 9.38171C9.97816 8.71636 10.6797 8.18177 11.4706 7.81517C12.2615 7.44858 13.1229 7.25878 13.9946 7.259L13.9999 7.25Z" fill="#58A6FF"/>
<path d="M13.2873 11.9217C13.4614 11.8296 13.6519 11.7728 13.848 11.7545C14.044 11.7362 14.2418 11.7568 14.4299 11.815C14.618 11.8733 14.7928 11.9681 14.9442 12.094C15.0956 12.2198 15.2207 12.3744 15.3123 12.5487C15.6985 13.2814 15.418 14.1912 14.6853 14.5737C14.4372 14.7045 14.1575 14.7632 13.8777 14.7431C13.598 14.7229 13.3295 14.6247 13.1028 14.4597L9.16529 16.2147C9.1431 16.2247 9.11999 16.2325 9.09629 16.2379C9.10779 16.2349 9.11929 16.2309 9.13079 16.2259C9.04397 16.2542 8.94981 16.2498 8.86604 16.2135C8.78227 16.1772 8.71466 16.1115 8.67594 16.0288C8.63722 15.9461 8.63007 15.8521 8.65583 15.7645C8.68158 15.6769 8.73847 15.6018 8.81579 15.5532L12.4908 13.2882C12.4827 13.0081 12.5528 12.7314 12.6932 12.4889C12.8336 12.2465 13.0388 12.048 13.2858 11.9157L13.2873 11.9217Z" fill="#58A6FF"/>
</g>
<path d="M24.83 16V8.95H25.87V15.11H29.33V16H24.83ZM32.3688 16.09C31.8688 16.09 31.4354 15.9867 31.0688 15.78C30.7021 15.5667 30.4188 15.2667 30.2188 14.88C30.0188 14.4867 29.9188 14.02 29.9188 13.48C29.9188 12.94 30.0188 12.4767 30.2188 12.09C30.4188 11.6967 30.7021 11.3967 31.0688 11.19C31.4354 10.9767 31.8688 10.87 32.3688 10.87C32.8688 10.87 33.3021 10.9767 33.6688 11.19C34.0421 11.3967 34.3288 11.6967 34.5288 12.09C34.7354 12.4767 34.8388 12.94 34.8388 13.48C34.8388 14.02 34.7354 14.4867 34.5288 14.88C34.3288 15.2667 34.0421 15.5667 33.6688 15.78C33.3021 15.9867 32.8688 16.09 32.3688 16.09ZM32.3688 15.3C32.8088 15.3 33.1588 15.1467 33.4188 14.84C33.6788 14.5333 33.8088 14.08 33.8088 13.48C33.8088 12.88 33.6788 12.43 33.4188 12.13C33.1588 11.8233 32.8088 11.67 32.3688 11.67C31.9354 11.67 31.5888 11.8233 31.3288 12.13C31.0688 12.43 30.9387 12.88 30.9387 13.48C30.9387 14.08 31.0654 14.5333 31.3188 14.84C31.5788 15.1467 31.9288 15.3 32.3688 15.3ZM37.3014 16L35.3914 10.96H36.4414L37.9314 15.16H37.6714L39.2014 10.96H39.9814L41.5014 15.16H41.2514L42.7414 10.96H43.7514L41.8314 16H40.9114L39.3314 11.72H39.8014L38.2414 16H37.3014ZM47.4374 16V8.95H50.4174C51.1708 8.95 51.7541 9.13 52.1674 9.49C52.5808 9.84333 52.7874 10.34 52.7874 10.98C52.7874 11.4 52.6941 11.76 52.5074 12.06C52.3208 12.36 52.0574 12.59 51.7174 12.75C51.3774 12.9033 50.9774 12.98 50.5174 12.98L50.6774 12.82H50.9474C51.2208 12.82 51.4641 12.89 51.6774 13.03C51.8974 13.17 52.0774 13.3933 52.2174 13.7L53.2274 16H52.0874L51.0874 13.69C50.9874 13.4167 50.8308 13.24 50.6174 13.16C50.4108 13.08 50.1541 13.04 49.8474 13.04H48.4774V16H47.4374ZM48.4774 12.25H50.2474C50.7474 12.25 51.1241 12.1433 51.3774 11.93C51.6374 11.7167 51.7674 11.41 51.7674 11.01C51.7674 10.6033 51.6374 10.2967 51.3774 10.09C51.1241 9.88333 50.7474 9.78 50.2474 9.78H48.4774V12.25ZM54.3201 16V10.96H55.3301V16H54.3201ZM54.2401 9.91V8.86H55.4101V9.91H54.2401ZM58.5403 16.09C58.1203 16.09 57.7336 16.0367 57.3803 15.93C57.027 15.8233 56.7336 15.6733 56.5003 15.48L56.8103 14.79C57.057 14.9767 57.3303 15.1167 57.6303 15.21C57.9303 15.3033 58.237 15.35 58.5503 15.35C58.917 15.35 59.1936 15.2867 59.3803 15.16C59.567 15.0267 59.6603 14.8467 59.6603 14.62C59.6603 14.4467 59.6003 14.3067 59.4803 14.2C59.367 14.0933 59.177 14.0133 58.9103 13.96L57.9503 13.77C57.5236 13.6767 57.2003 13.5167 56.9803 13.29C56.7603 13.0633 56.6503 12.7733 56.6503 12.42C56.6503 12.12 56.7303 11.8533 56.8903 11.62C57.057 11.3867 57.2903 11.2033 57.5903 11.07C57.897 10.9367 58.2536 10.87 58.6603 10.87C59.0336 10.87 59.3803 10.9233 59.7003 11.03C60.0203 11.1367 60.287 11.29 60.5003 11.49L60.1803 12.16C59.9736 11.9867 59.7403 11.8533 59.4803 11.76C59.2203 11.66 58.957 11.61 58.6903 11.61C58.317 11.61 58.0403 11.68 57.8603 11.82C57.6803 11.96 57.5903 12.1433 57.5903 12.37C57.5903 12.5433 57.6436 12.6867 57.7503 12.8C57.8636 12.9067 58.0403 12.99 58.2803 13.05L59.2403 13.24C59.6936 13.3333 60.0336 13.4867 60.2603 13.7C60.487 13.9133 60.6003 14.2 60.6003 14.56C60.6003 14.8733 60.5136 15.1467 60.3403 15.38C60.167 15.6133 59.927 15.79 59.6203 15.91C59.3136 16.03 58.9536 16.09 58.5403 16.09ZM61.7908 16V8.64H62.8008V13.16H62.8208L65.0208 10.96H66.2708L63.6108 13.61L63.6208 13.16L66.4908 16H65.2108L62.8208 13.69H62.8008V16H61.7908Z" fill="#142457"/>
<defs>
<clipPath id="clip0_3113_27270">
<rect width="12" height="12" fill="white" transform="translate(8 6.5)"/>
</clipPath>
</defs>
</svg>
