<svg width="20" height="20" viewBox="0 0 20 20" fill="none" xmlns="http://www.w3.org/2000/svg">
<path fill-rule="evenodd" clip-rule="evenodd" d="M5.62484 6.66602C5.62484 4.24977 7.58359 2.29102 9.99984 2.29102C12.0376 2.29102 13.7513 3.6847 14.237 5.5718C14.3231 5.90609 14.6638 6.10733 14.9981 6.02129C15.3324 5.93525 15.5336 5.59451 15.4476 5.26023C14.8232 2.83426 12.6217 1.04102 9.99984 1.04102C6.89324 1.04102 4.37484 3.55941 4.37484 6.66602V8.37819C3.44588 8.44757 2.84093 8.62272 2.39874 9.06492C1.6665 9.79715 1.6665 10.9757 1.6665 13.3327C1.6665 15.6897 1.6665 16.8682 2.39874 17.6005C3.13097 18.3327 4.30948 18.3327 6.6665 18.3327H13.3332C15.6902 18.3327 16.8687 18.3327 17.6009 17.6005C18.3332 16.8682 18.3332 15.6897 18.3332 13.3327C18.3332 10.9757 18.3332 9.79715 17.6009 9.06492C16.8687 8.33268 15.6902 8.33268 13.3332 8.33268H6.6665C6.29024 8.33268 5.94401 8.33268 5.62484 8.33566V6.66602ZM11.6665 13.3327C11.6665 14.2532 10.9203 14.9993 9.99984 14.9993C9.07936 14.9993 8.33317 14.2532 8.33317 13.3327C8.33317 12.4122 9.07936 11.666 9.99984 11.666C10.9203 11.666 11.6665 12.4122 11.6665 13.3327Z" fill="#FF7926"/>
</svg>
