<svg width="20" height="20" viewBox="0 0 20 20" fill="none" xmlns="http://www.w3.org/2000/svg">
<path d="M17.451 6.82335C17.9344 7.30107 18.1424 7.90256 18.2396 8.61694C18.3332 9.30502 18.3332 10.1799 18.3332 11.2653V11.3524C18.3332 12.4378 18.3332 13.3126 18.2396 14.0007C18.1424 14.7151 17.9344 15.3166 17.451 15.7943C16.9675 16.272 16.3588 16.4775 15.6358 16.5735C14.9395 16.666 14.0541 16.666 12.9557 16.666H8.85151C7.75306 16.666 6.86768 16.666 6.17133 16.5735C5.44837 16.4775 4.83964 16.272 4.35619 15.7943C4.06288 15.5045 3.87097 15.1691 3.74368 14.7906C4.46989 14.8805 5.36833 14.8805 6.40639 14.8804H10.581C11.649 14.8805 12.5693 14.8805 13.3062 14.7826C14.096 14.6777 14.853 14.4411 15.4671 13.8343C16.0811 13.2276 16.3205 12.4795 16.4267 11.6992C16.5258 10.971 16.5257 10.0617 16.5257 9.00634V8.8496C16.5257 7.82361 16.5258 6.93565 16.4348 6.21797C16.818 6.34375 17.1576 6.53342 17.451 6.82335Z" fill="#22C556"/>
<path d="M8.49369 7.53906C7.7174 7.53906 7.0881 8.16089 7.0881 8.92796C7.0881 9.69503 7.7174 10.3169 8.49369 10.3169C9.26999 10.3169 9.89929 9.69503 9.89929 8.92796C9.89929 8.16089 9.26999 7.53906 8.49369 7.53906Z" fill="#22C556"/>
<path fill-rule="evenodd" clip-rule="evenodd" d="M2.37226 4.86339C1.6665 5.56076 1.6665 6.68316 1.6665 8.92796C1.6665 11.1728 1.6665 12.2952 2.37226 12.9925C3.07801 13.6899 4.21391 13.6899 6.4857 13.6899H10.5017C12.7735 13.6899 13.9094 13.6899 14.6151 12.9925C15.3209 12.2952 15.3209 11.1728 15.3209 8.92796C15.3209 6.68316 15.3209 5.56076 14.6151 4.86339C13.9094 4.16602 12.7735 4.16602 10.5017 4.16602H6.4857C4.21391 4.16602 3.07801 4.16602 2.37226 4.86339ZM5.8833 8.92796C5.8833 7.5034 7.05201 6.34857 8.49369 6.34857C9.93538 6.34857 11.1041 7.5034 11.1041 8.92796C11.1041 10.3525 9.93538 11.5073 8.49369 11.5073C7.05201 11.5073 5.8833 10.3525 5.8833 8.92796ZM12.9113 11.1105C12.5786 11.1105 12.3089 10.844 12.3089 10.5153V7.34065C12.3089 7.0119 12.5786 6.7454 12.9113 6.7454C13.244 6.7454 13.5137 7.0119 13.5137 7.34065V10.5153C13.5137 10.844 13.244 11.1105 12.9113 11.1105ZM3.4737 10.5153C3.4737 10.844 3.7434 11.1105 4.0761 11.1105C4.4088 11.1105 4.6785 10.844 4.6785 10.5153L4.6785 7.34065C4.6785 7.0119 4.4088 6.7454 4.0761 6.7454C3.7434 6.7454 3.4737 7.0119 3.4737 7.34065L3.4737 10.5153Z" fill="#22C556"/>
</svg>
