<svg width="20" height="20" viewBox="0 0 20 20" fill="none" xmlns="http://www.w3.org/2000/svg">
<path fill-rule="evenodd" clip-rule="evenodd" d="M7.63577 3.14687C7.73921 3.47619 7.55609 3.827 7.22677 3.93043C4.36566 4.82905 2.2915 7.50235 2.2915 10.6585C2.2915 14.5524 5.44821 17.7092 9.3422 17.7092C12.4983 17.7092 15.1716 15.635 16.0702 12.7739C16.1737 12.4446 16.5245 12.2614 16.8538 12.3649C17.1831 12.4683 17.3662 12.8191 17.2628 13.1484C16.2052 16.5156 13.0599 18.9592 9.3422 18.9592C4.75785 18.9592 1.0415 15.2428 1.0415 10.6585C1.0415 6.94075 3.4851 3.79542 6.85221 2.73787C7.18153 2.63444 7.53234 2.81755 7.63577 3.14687Z" fill="#3282FF"/>
<path d="M18.2608 8.28874C17.3761 5.11966 14.8795 2.62306 11.7104 1.73843C10.3408 1.3561 9.1665 2.54451 9.1665 3.96653V9.54528C9.1665 10.2563 9.74289 10.8327 10.4539 10.8327H16.0327C17.4547 10.8327 18.6431 9.6584 18.2608 8.28874Z" fill="#3282FF"/>
</svg>
