<svg width="20" height="20" viewBox="0 0 20 20" fill="none" xmlns="http://www.w3.org/2000/svg">
<path fill-rule="evenodd" clip-rule="evenodd" d="M7.99351 2.66624C7.79057 2.83919 7.68909 2.92566 7.58072 2.9983C7.3323 3.1648 7.05332 3.28036 6.75992 3.33828C6.63193 3.36355 6.49903 3.37416 6.23324 3.39537C5.56542 3.44866 5.23151 3.47531 4.95293 3.57371C4.3086 3.80129 3.80178 4.30811 3.57419 4.95244C3.4758 5.23102 3.44915 5.56493 3.39586 6.23275C3.37465 6.49854 3.36404 6.63144 3.33877 6.75943C3.28085 7.05283 3.16529 7.33181 2.99879 7.58023C2.92615 7.6886 2.83968 7.79008 2.66673 7.99302C2.2322 8.50292 2.01492 8.75788 1.88752 9.02444C1.59283 9.64098 1.59283 10.3577 1.88752 10.9743C2.01493 11.2408 2.23219 11.4958 2.66673 12.0057C2.83966 12.2086 2.92615 12.3101 2.99879 12.4185C3.16529 12.6669 3.28085 12.9459 3.33877 13.2393C3.36404 13.3673 3.37465 13.5002 3.39586 13.7659C3.44915 14.4338 3.4758 14.7677 3.57419 15.0463C3.80178 15.6906 4.30859 16.1974 4.95293 16.425C5.23151 16.5234 5.56542 16.55 6.23324 16.6033C6.49903 16.6245 6.63193 16.6351 6.75992 16.6604C7.05332 16.7183 7.3323 16.8339 7.58072 17.0004C7.68909 17.073 7.79056 17.1595 7.99351 17.3325C8.50341 17.767 8.75836 17.9843 9.02493 18.1117C9.64147 18.4064 10.3582 18.4064 10.9747 18.1117C11.2413 17.9843 11.4963 17.767 12.0062 17.3325C12.2091 17.1595 12.3106 17.073 12.419 17.0004C12.6674 16.8339 12.9464 16.7183 13.2398 16.6604C13.3677 16.6351 13.5006 16.6245 13.7664 16.6033C14.4343 16.55 14.7682 16.5234 15.0468 16.425C15.6911 16.1974 16.1979 15.6906 16.4255 15.0463C16.5239 14.7677 16.5505 14.4338 16.6038 13.7659C16.625 13.5002 16.6356 13.3673 16.6609 13.2393C16.7188 12.9459 16.8344 12.6669 17.0009 12.4185C17.0735 12.3101 17.16 12.2086 17.3329 12.0057C17.7675 11.4958 17.9848 11.2408 18.1122 10.9743C18.4068 10.3577 18.4068 9.64098 18.1122 9.02444C17.9848 8.75788 17.7675 8.50292 17.3329 7.99302C17.16 7.79008 17.0735 7.6886 17.0009 7.58023C16.8344 7.33181 16.7188 7.05283 16.6609 6.75943C16.6356 6.63144 16.625 6.49854 16.6038 6.23275C16.5505 5.56493 16.5239 5.23102 16.4255 4.95244C16.1979 4.30811 15.6911 3.80129 15.0467 3.57371C14.7682 3.47531 14.4343 3.44866 13.7664 3.39537C13.5006 3.37416 13.3677 3.36355 13.2398 3.33828C12.9464 3.28036 12.6674 3.1648 12.419 2.9983C12.3106 2.92566 12.2091 2.83919 12.0062 2.66624C11.4963 2.23171 11.2413 2.01444 10.9747 1.88703C10.3582 1.59234 9.64146 1.59234 9.02493 1.88703C8.75836 2.01444 8.50341 2.23171 7.99351 2.66624ZM13.1923 6.80734C13.4571 7.0722 13.4571 7.50162 13.1923 7.76648L7.76653 13.1922C7.50167 13.4571 7.07225 13.4571 6.80739 13.1922C6.54253 12.9274 6.54253 12.4979 6.80739 12.2331L12.2331 6.80734C12.498 6.54248 12.9274 6.54248 13.1923 6.80734ZM13.1648 12.2605C13.1648 12.7599 12.76 13.1648 12.2605 13.1648C11.7611 13.1648 11.3563 12.7599 11.3563 12.2605C11.3563 11.7611 11.7611 11.3562 12.2605 11.3562C12.76 11.3562 13.1648 11.7611 13.1648 12.2605ZM7.7391 8.64335C8.23853 8.64335 8.64339 8.23848 8.64339 7.73906C8.64339 7.23963 8.23853 6.83477 7.7391 6.83477C7.23968 6.83477 6.83482 7.23963 6.83482 7.73906C6.83482 8.23848 7.23968 8.64335 7.7391 8.64335Z" fill="#FF2660"/>
</svg>
