<svg width="20" height="20" viewBox="0 0 20 20" fill="none" xmlns="http://www.w3.org/2000/svg">
<path fill-rule="evenodd" clip-rule="evenodd" d="M8.33009 3.33398H11.6696C14.8181 3.33398 16.3923 3.33398 17.3705 4.3103C18.1027 5.04114 18.2867 6.10542 18.333 7.91268C18.339 8.14439 18.1488 8.32955 17.9242 8.38829C17.2076 8.57571 16.6788 9.22655 16.6788 10.0007C16.6788 10.7748 17.2076 11.4256 17.9242 11.613C18.1488 11.6718 18.339 11.8569 18.333 12.0886C18.2867 13.8959 18.1027 14.9602 17.3705 15.691C16.3923 16.6673 14.8181 16.6673 11.6696 16.6673H8.33009C5.18158 16.6673 3.60733 16.6673 2.62921 15.691C1.89702 14.9602 1.71292 13.8959 1.66664 12.0886C1.66071 11.8569 1.85084 11.6718 2.07547 11.613C2.79212 11.4256 3.32084 10.7748 3.32084 10.0007C3.32084 9.22655 2.79212 8.57571 2.07547 8.38829C1.85084 8.32955 1.66071 8.14439 1.66664 7.91268C1.71292 6.10542 1.89702 5.04114 2.62921 4.3103C3.60733 3.33398 5.18158 3.33398 8.33009 3.33398ZM10.7949 8.49971L10.7129 8.35274C10.3956 7.78468 10.237 7.50065 9.99984 7.50065C9.76268 7.50065 9.60406 7.78468 9.28681 8.35275L9.20474 8.49971C9.11458 8.66113 9.06951 8.74185 8.99923 8.7951C8.92894 8.84836 8.84141 8.86813 8.66635 8.90766L8.50697 8.94366C7.89091 9.08279 7.58288 9.15236 7.5096 9.38758C7.43631 9.62281 7.6463 9.86792 8.06629 10.3581L8.17495 10.485C8.2943 10.6243 8.35397 10.6939 8.38081 10.7801C8.40766 10.8662 8.39864 10.9592 8.38059 11.145L8.36417 11.3143C8.30067 11.9683 8.26892 12.2953 8.46078 12.4407C8.65264 12.5861 8.94105 12.4535 9.51787 12.1884L9.66709 12.1199C9.83101 12.0445 9.91296 12.0069 9.99984 12.0069C10.0867 12.0069 10.1687 12.0445 10.3326 12.1199L10.4818 12.1884C11.0586 12.4535 11.347 12.5861 11.5389 12.4407C11.7308 12.2953 11.699 11.9683 11.6355 11.3142L11.6191 11.145C11.601 10.9592 11.592 10.8662 11.6189 10.7801C11.6457 10.6939 11.7054 10.6243 11.8247 10.485L11.9334 10.3581C12.3534 9.86792 12.5634 9.62281 12.4901 9.38758C12.4168 9.15236 12.1088 9.08279 11.4927 8.94366L11.3333 8.90766C11.1583 8.86813 11.0707 8.84836 11.0004 8.7951C10.9302 8.74185 10.8851 8.66113 10.7949 8.49971Z" fill="#FFD726"/>
</svg>
