<svg width="20" height="20" viewBox="0 0 20 20" fill="none" xmlns="http://www.w3.org/2000/svg">
<path fill-rule="evenodd" clip-rule="evenodd" d="M8.32902 3.33398H11.6707C14.8212 3.33398 16.3964 3.33398 17.3752 4.3103C18.0491 4.98251 18.259 5.93681 18.3244 7.49188C18.3373 7.80027 18.3438 7.95446 18.2862 8.05734C18.2286 8.16021 17.9987 8.2886 17.5389 8.54537C17.0283 8.83053 16.6831 9.37538 16.6831 10.0007C16.6831 10.6259 17.0283 11.1708 17.5389 11.4559C17.9987 11.7127 18.2286 11.8411 18.2862 11.944C18.3438 12.0468 18.3373 12.201 18.3244 12.5094C18.259 14.0645 18.0491 15.0188 17.3752 15.691C16.3964 16.6673 14.8212 16.6673 11.6707 16.6673H8.32902C5.17849 16.6673 3.60323 16.6673 2.62449 15.691C1.9506 15.0188 1.7407 14.0645 1.67532 12.5094C1.66235 12.201 1.65587 12.0468 1.71346 11.944C1.77104 11.8411 2.00095 11.7127 2.46074 11.4559C2.97138 11.1708 3.31656 10.6259 3.31656 10.0007C3.31656 9.37538 2.97138 8.83053 2.46074 8.54537C2.00094 8.2886 1.77104 8.16021 1.71346 8.05734C1.65587 7.95446 1.66235 7.80027 1.67532 7.49188C1.7407 5.93681 1.9506 4.98251 2.62449 4.3103C3.60323 3.33398 5.17849 3.33398 8.32902 3.33398ZM12.9564 7.05871C13.2011 7.30279 13.2011 7.69851 12.9564 7.94259L7.94391 12.9426C7.69923 13.1867 7.30251 13.1867 7.05783 12.9426C6.81314 12.6985 6.81314 12.3028 7.05783 12.0587L12.0703 7.05871C12.315 6.81463 12.7117 6.81463 12.9564 7.05871ZM12.0956 12.9173C12.557 12.9173 12.931 12.5442 12.931 12.084C12.931 11.6237 12.557 11.2507 12.0956 11.2507C11.6342 11.2507 11.2602 11.6237 11.2602 12.084C11.2602 12.5442 11.6342 12.9173 12.0956 12.9173ZM7.91857 8.75065C8.37996 8.75065 8.75398 8.37755 8.75398 7.91732C8.75398 7.45708 8.37996 7.08398 7.91857 7.08398C7.45719 7.08398 7.08316 7.45708 7.08316 7.91732C7.08316 8.37755 7.45719 8.75065 7.91857 8.75065Z" fill="#BF44EF"/>
</svg>
