<svg width="24" height="25" viewBox="0 0 24 25" fill="none" xmlns="http://www.w3.org/2000/svg">
<path d="M11.25 2.5C9.88382 2.50133 8.73117 2.51015 7.75 2.5685V6.74976H11.25V2.5Z" fill="#CDCFD4"/>
<path d="M6.25 2.7214C5.02727 2.91566 4.1485 3.28019 3.46447 3.96423C2.78043 4.64826 2.4159 5.52703 2.22164 6.74976H6.25V2.7214Z" fill="#CDCFD4"/>
<path fill-rule="evenodd" clip-rule="evenodd" d="M2 12.4998C2 10.7993 2 9.40556 2.06874 8.24976L21.9313 8.24976C22 9.40556 22 10.7993 22 12.4998C22 14.2002 22 15.594 21.9313 16.7498L2.06874 16.7498C2 15.594 2 14.2002 2 12.4998ZM12.4112 10.9043C13.4704 11.6162 14 11.9722 14 12.5C14 13.0278 13.4704 13.3838 12.4112 14.0957C11.3375 14.8173 10.8006 15.1781 10.4003 14.9132C10 14.6483 10 13.9322 10 12.5C10 11.0678 10 10.3517 10.4003 10.0868C10.8006 9.8219 11.3375 10.1827 12.4112 10.9043Z" fill="#CDCFD4"/>
<path d="M21.7784 6.74976C21.5841 5.52703 21.2196 4.64826 20.5355 3.96423C19.8515 3.28019 18.9727 2.91566 17.75 2.7214V6.74976H21.7784Z" fill="#CDCFD4"/>
<path d="M12.75 2.5C14.1162 2.50133 15.2688 2.51015 16.25 2.5685V6.74976H12.75V2.5Z" fill="#CDCFD4"/>
<path d="M21.7784 18.2498H17.75V22.2781C18.9727 22.0839 19.8515 21.7193 20.5355 21.0353C21.2196 20.3513 21.5841 19.4725 21.7784 18.2498Z" fill="#CDCFD4"/>
<path d="M16.25 18.2498V22.431C15.2688 22.4894 14.1162 22.4982 12.75 22.4995V18.2498H16.25Z" fill="#CDCFD4"/>
<path d="M11.25 22.4995V18.2498H7.75L7.75 22.431C8.73117 22.4894 9.88382 22.4982 11.25 22.4995Z" fill="#CDCFD4"/>
<path d="M6.25 18.2498L6.25 22.2781C5.02727 22.0839 4.1485 21.7193 3.46447 21.0353C2.78043 20.3513 2.4159 19.4725 2.22164 18.2498H6.25Z" fill="#CDCFD4"/>
</svg>
